<?xml version="1.0" encoding="UTF-8" standalone="no"?>
<!DOCTYPE svg PUBLIC "-//W3C//DTD SVG 1.1//EN"
 "http://www.w3.org/Graphics/SVG/1.1/DTD/svg11.dtd">
<!-- Generated by graphviz version 14.0.4 (20251115.1723)
 -->
<!-- Title: CategorificationMap Pages: 1 -->
<svg width="714pt" height="394pt"
 viewBox="0.00 0.00 714.00 394.00" xmlns="http://www.w3.org/2000/svg" xmlns:xlink="http://www.w3.org/1999/xlink">
<g id="graph0" class="graph" transform="scale(1 1) rotate(0) translate(4 390.25)">
<title>CategorificationMap</title>
<polygon fill="white" stroke="none" points="-4,4 -4,-390.25 710,-390.25 710,4 -4,4"/>
<g id="clust1" class="cluster">
<title>cluster_phase1</title>
<polygon fill="#f5f5f5" stroke="#1565c0" points="8,-8 8,-378.25 427,-378.25 427,-8 8,-8"/>
<text xml:space="preserve" text-anchor="middle" x="217.5" y="-362.85" font-family="Helvetica,sans-Serif" font-size="12.00" fill="#1565c0">Systems Ontology — Phase 1</text>
<text xml:space="preserve" text-anchor="middle" x="217.5" y="-350.1" font-family="Helvetica,sans-Serif" font-size="12.00" fill="#1565c0">~2,930 lines, 20 modules, 0 sorry</text>
</g>
<g id="clust2" class="cluster">
<title>cluster_phase2</title>
<polygon fill="#f5f5f5" stroke="#c62828" points="435,-93.25 435,-377.12 698,-377.12 698,-93.25 435,-93.25"/>
<text xml:space="preserve" text-anchor="middle" x="566.5" y="-361.73" font-family="Helvetica,sans-Serif" font-size="12.00" fill="#c62828">BRA / Crypto — Phase 2</text>
<text xml:space="preserve" text-anchor="middle" x="566.5" y="-348.98" font-family="Helvetica,sans-Serif" font-size="12.00" fill="#c62828">1,080 lines, 11 files, 0 sorry</text>
</g>
<!-- MobusSys -->
<g id="node1" class="node">
<title>MobusSys</title>
<path fill="#fce4ec" stroke="black" d="M256.75,-336.75C256.75,-336.75 143.25,-336.75 143.25,-336.75 137.25,-336.75 131.25,-330.75 131.25,-324.75 131.25,-324.75 131.25,-308.5 131.25,-308.5 131.25,-302.5 137.25,-296.5 143.25,-296.5 143.25,-296.5 256.75,-296.5 256.75,-296.5 262.75,-296.5 268.75,-302.5 268.75,-308.5 268.75,-308.5 268.75,-324.75 268.75,-324.75 268.75,-330.75 262.75,-336.75 256.75,-336.75"/>
<text xml:space="preserve" text-anchor="middle" x="200" y="-319.45" font-family="Helvetica,sans-Serif" font-size="14.00">MobusSys</text>
<text xml:space="preserve" text-anchor="middle" x="200" y="-304.45" font-family="Helvetica,sans-Serif" font-size="14.00">⟨C,N,E,G,B,T,H,Δt⟩</text>
</g>
<!-- RichSys -->
<g id="node2" class="node">
<title>RichSys</title>
<path fill="#e8f5e9" stroke="black" d="M186.25,-238C186.25,-238 27.75,-238 27.75,-238 21.75,-238 15.75,-232 15.75,-226 15.75,-226 15.75,-212 15.75,-212 15.75,-206 21.75,-200 27.75,-200 27.75,-200 186.25,-200 186.25,-200 192.25,-200 198.25,-206 198.25,-212 198.25,-212 198.25,-226 198.25,-226 198.25,-232 192.25,-238 186.25,-238"/>
<text xml:space="preserve" text-anchor="middle" x="107" y="-220.7" font-family="Helvetica,sans-Serif" font-size="14.00">RichSys</text>
<text xml:space="preserve" text-anchor="middle" x="107" y="-205.7" font-family="Helvetica,sans-Serif" font-size="14.00">{N.toRelation, G.toRelation}</text>
</g>
<!-- MobusSys&#45;&gt;RichSys -->
<g id="edge1" class="edge">
<title>MobusSys&#45;&gt;RichSys</title>
<path fill="none" stroke="black" d="M181.18,-296.27C167.17,-281.87 147.89,-262.04 132.49,-246.21"/>
<polygon fill="black" stroke="black" points="135.38,-244.16 125.9,-239.43 130.36,-249.04 135.38,-244.16"/>
<text xml:space="preserve" text-anchor="middle" x="189.95" y="-263.38" font-family="Helvetica,sans-Serif" font-size="10.00">toRichBunge</text>
</g>
<!-- BungeSys -->
<g id="node3" class="node">
<title>BungeSys</title>
<path fill="#e3f2fd" stroke="black" d="M244.38,-141.5C244.38,-141.5 155.62,-141.5 155.62,-141.5 149.62,-141.5 143.62,-135.5 143.62,-129.5 143.62,-129.5 143.62,-113.25 143.62,-113.25 143.62,-107.25 149.62,-101.25 155.62,-101.25 155.62,-101.25 244.38,-101.25 244.38,-101.25 250.38,-101.25 256.38,-107.25 256.38,-113.25 256.38,-113.25 256.38,-129.5 256.38,-129.5 256.38,-135.5 250.38,-141.5 244.38,-141.5"/>
<text xml:space="preserve" text-anchor="middle" x="200" y="-124.2" font-family="Helvetica,sans-Serif" font-size="14.00">BungeSys</text>
<text xml:space="preserve" text-anchor="middle" x="200" y="-109.2" font-family="Helvetica,sans-Serif" font-size="14.00">⟨C, E, ⋃₀{N,G}⟩</text>
</g>
<!-- MobusSys&#45;&gt;BungeSys -->
<g id="edge4" class="edge">
<title>MobusSys&#45;&gt;BungeSys</title>
<path fill="none" stroke="#888888" stroke-dasharray="5,2" d="M214.03,-296.04C217.23,-290.6 220.21,-284.53 222,-278.5 237.04,-227.76 241.92,-209.97 226,-159.5 225.18,-156.9 224.11,-154.33 222.87,-151.82"/>
<polygon fill="#888888" stroke="#888888" points="225.91,-150.09 217.79,-143.29 219.89,-153.67 225.91,-150.09"/>
<text xml:space="preserve" text-anchor="middle" x="264.72" y="-215.12" font-family="Helvetica,sans-Serif" font-size="10.00">toBunge = ⋙</text>
</g>
<!-- RichSys&#45;&gt;BungeSys -->
<g id="edge2" class="edge">
<title>RichSys&#45;&gt;BungeSys</title>
<path fill="none" stroke="black" d="M124.93,-199.56C138.69,-185.42 157.88,-165.68 173.42,-149.7"/>
<polygon fill="black" stroke="black" points="175.65,-152.43 180.11,-142.83 170.63,-147.55 175.65,-152.43"/>
<text xml:space="preserve" text-anchor="middle" x="191.83" y="-166.88" font-family="Helvetica,sans-Serif" font-size="10.00">flattenFunctor</text>
</g>
<!-- KlirSys -->
<g id="node4" class="node">
<title>KlirSys</title>
<path fill="#fff3e0" stroke="black" d="M217,-54C217,-54 183,-54 183,-54 177,-54 171,-48 171,-42 171,-42 171,-28 171,-28 171,-22 177,-16 183,-16 183,-16 217,-16 217,-16 223,-16 229,-22 229,-28 229,-28 229,-42 229,-42 229,-48 223,-54 217,-54"/>
<text xml:space="preserve" text-anchor="middle" x="200" y="-36.7" font-family="Helvetica,sans-Serif" font-size="14.00">KlirSys</text>
<text xml:space="preserve" text-anchor="middle" x="200" y="-21.7" font-family="Helvetica,sans-Serif" font-size="14.00">(T, R)</text>
</g>
<!-- BungeSys&#45;&gt;KlirSys -->
<g id="edge3" class="edge">
<title>BungeSys&#45;&gt;KlirSys</title>
<path fill="none" stroke="black" d="M200,-100.81C200,-90.4 200,-77.39 200,-65.76"/>
<polygon fill="black" stroke="black" points="203.5,-65.82 200,-55.82 196.5,-65.82 203.5,-65.82"/>
<text xml:space="preserve" text-anchor="middle" x="211.25" y="-73.75" font-family="Helvetica,sans-Serif" font-size="10.00">toKlir</text>
</g>
<!-- FamilyOrd -->
<g id="node5" class="node">
<title>FamilyOrd</title>
<path fill="#e3f2fd" stroke="black" d="M386.88,-334.62C386.88,-334.62 331.12,-334.62 331.12,-334.62 325.12,-334.62 319.12,-328.62 319.12,-322.62 319.12,-322.62 319.12,-310.62 319.12,-310.62 319.12,-304.62 325.12,-298.62 331.12,-298.62 331.12,-298.62 386.88,-298.62 386.88,-298.62 392.88,-298.62 398.88,-304.62 398.88,-310.62 398.88,-310.62 398.88,-322.62 398.88,-322.62 398.88,-328.62 392.88,-334.62 386.88,-334.62"/>
<text xml:space="preserve" text-anchor="middle" x="359" y="-310.82" font-family="Helvetica,sans-Serif" font-size="14.00">FamilyOrd</text>
</g>
<!-- RefinementOrd -->
<g id="node6" class="node">
<title>RefinementOrd</title>
<path fill="#e8f5e9" stroke="black" d="M406.5,-237C406.5,-237 321.5,-237 321.5,-237 315.5,-237 309.5,-231 309.5,-225 309.5,-225 309.5,-213 309.5,-213 309.5,-207 315.5,-201 321.5,-201 321.5,-201 406.5,-201 406.5,-201 412.5,-201 418.5,-207 418.5,-213 418.5,-213 418.5,-225 418.5,-225 418.5,-231 412.5,-237 406.5,-237"/>
<text xml:space="preserve" text-anchor="middle" x="364" y="-213.2" font-family="Helvetica,sans-Serif" font-size="14.00">RefinementOrd</text>
</g>
<!-- FamilyOrd&#45;&gt;RefinementOrd -->
<g id="edge5" class="edge">
<title>FamilyOrd&#45;&gt;RefinementOrd</title>
<path fill="none" stroke="black" d="M359.89,-298.53C360.62,-284.61 361.66,-264.67 362.52,-248.36"/>
<polygon fill="black" stroke="black" points="365.99,-248.95 363.02,-238.78 359,-248.59 365.99,-248.95"/>
<text xml:space="preserve" text-anchor="middle" x="392.09" y="-269" font-family="Helvetica,sans-Serif" font-size="10.00">forgetFamily</text>
<text xml:space="preserve" text-anchor="middle" x="392.09" y="-257.75" font-family="Helvetica,sans-Serif" font-size="10.00">Faithful, ¬Full</text>
</g>
<!-- FlatOrd -->
<g id="node7" class="node">
<title>FlatOrd</title>
<path fill="#fff3e0" stroke="black" d="M362.88,-139.38C362.88,-139.38 325.12,-139.38 325.12,-139.38 319.12,-139.38 313.12,-133.38 313.12,-127.38 313.12,-127.38 313.12,-115.38 313.12,-115.38 313.12,-109.38 319.12,-103.38 325.12,-103.38 325.12,-103.38 362.88,-103.38 362.88,-103.38 368.88,-103.38 374.88,-109.38 374.88,-115.38 374.88,-115.38 374.88,-127.38 374.88,-127.38 374.88,-133.38 368.88,-139.38 362.88,-139.38"/>
<text xml:space="preserve" text-anchor="middle" x="344" y="-115.58" font-family="Helvetica,sans-Serif" font-size="14.00">FlatOrd</text>
</g>
<!-- RefinementOrd&#45;&gt;FlatOrd -->
<g id="edge6" class="edge">
<title>RefinementOrd&#45;&gt;FlatOrd</title>
<path fill="none" stroke="black" d="M360.1,-200.8C358.78,-194.85 357.3,-188.14 356,-182 353.87,-171.94 351.62,-160.9 349.66,-151.09"/>
<polygon fill="black" stroke="black" points="353.11,-150.48 347.72,-141.36 346.24,-151.85 353.11,-150.48"/>
<text xml:space="preserve" text-anchor="middle" x="393.5" y="-172.5" font-family="Helvetica,sans-Serif" font-size="10.00">forgetRefinement</text>
<text xml:space="preserve" text-anchor="middle" x="393.5" y="-161.25" font-family="Helvetica,sans-Serif" font-size="10.00">Faithful, ¬Full</text>
</g>
<!-- BtcState -->
<g id="node8" class="node">
<title>BtcState</title>
<path fill="#fff3e0" stroke="black" d="M642.25,-335.62C642.25,-335.62 489.75,-335.62 489.75,-335.62 483.75,-335.62 477.75,-329.62 477.75,-323.62 477.75,-323.62 477.75,-309.62 477.75,-309.62 477.75,-303.62 483.75,-297.62 489.75,-297.62 489.75,-297.62 642.25,-297.62 642.25,-297.62 648.25,-297.62 654.25,-303.62 654.25,-309.62 654.25,-309.62 654.25,-323.62 654.25,-323.62 654.25,-329.62 648.25,-335.62 642.25,-335.62"/>
<text xml:space="preserve" text-anchor="middle" x="566" y="-318.32" font-family="Helvetica,sans-Serif" font-size="14.00">BtcState</text>
<text xml:space="preserve" text-anchor="middle" x="566" y="-303.32" font-family="Helvetica,sans-Serif" font-size="14.00">(non&#45;thin, List Transaction)</text>
</g>
<!-- EthState -->
<g id="node9" class="node">
<title>EthState</title>
<path fill="#e3f2fd" stroke="black" d="M598.75,-238C598.75,-238 455.25,-238 455.25,-238 449.25,-238 443.25,-232 443.25,-226 443.25,-226 443.25,-212 443.25,-212 443.25,-206 449.25,-200 455.25,-200 455.25,-200 598.75,-200 598.75,-200 604.75,-200 610.75,-206 610.75,-212 610.75,-212 610.75,-226 610.75,-226 610.75,-232 604.75,-238 598.75,-238"/>
<text xml:space="preserve" text-anchor="middle" x="527" y="-220.7" font-family="Helvetica,sans-Serif" font-size="14.00">EthState</text>
<text xml:space="preserve" text-anchor="middle" x="527" y="-205.7" font-family="Helvetica,sans-Serif" font-size="14.00">(thin, totalValue ordering)</text>
</g>
<!-- BtcState&#45;&gt;EthState -->
<g id="edge7" class="edge">
<title>BtcState&#45;&gt;EthState</title>
<path fill="none" stroke="black" d="M558.48,-297.19C552.87,-283.43 545.1,-264.37 538.68,-248.64"/>
<polygon fill="black" stroke="black" points="542.09,-247.72 535.07,-239.78 535.6,-250.36 542.09,-247.72"/>
<text xml:space="preserve" text-anchor="middle" x="589.37" y="-269" font-family="Helvetica,sans-Serif" font-size="10.00">collapseFunctor</text>
<text xml:space="preserve" text-anchor="middle" x="589.37" y="-257.75" font-family="Helvetica,sans-Serif" font-size="10.00">EssSurj, ¬Faithful</text>
</g>
<!-- NatVal -->
<g id="node10" class="node">
<title>NatVal</title>
<path fill="#f3e5f5" stroke="black" d="M643,-141.5C643,-141.5 591,-141.5 591,-141.5 585,-141.5 579,-135.5 579,-129.5 579,-129.5 579,-113.25 579,-113.25 579,-107.25 585,-101.25 591,-101.25 591,-101.25 643,-101.25 643,-101.25 649,-101.25 655,-107.25 655,-113.25 655,-113.25 655,-129.5 655,-129.5 655,-135.5 649,-141.5 643,-141.5"/>
<text xml:space="preserve" text-anchor="middle" x="617" y="-124.2" font-family="Helvetica,sans-Serif" font-size="14.00">ℕ</text>
<text xml:space="preserve" text-anchor="middle" x="617" y="-106.95" font-family="Helvetica,sans-Serif" font-size="14.00">totalValue</text>
</g>
<!-- BtcState&#45;&gt;NatVal -->
<g id="edge8" class="edge">
<title>BtcState&#45;&gt;NatVal</title>
<path fill="none" stroke="black" stroke-dasharray="5,2" d="M614.57,-297.13C621.93,-292.19 628.54,-286.06 633,-278.5 655.93,-239.59 642.45,-185.61 630.11,-152.39"/>
<polygon fill="black" stroke="black" points="633.48,-151.41 626.57,-143.38 626.97,-153.97 633.48,-151.41"/>
<text xml:space="preserve" text-anchor="middle" x="666.82" y="-215.12" font-family="Helvetica,sans-Serif" font-size="10.00">totalValue</text>
</g>
<!-- EthState&#45;&gt;NatVal -->
<g id="edge9" class="edge">
<title>EthState&#45;&gt;NatVal</title>
<path fill="none" stroke="black" stroke-dasharray="5,2" d="M544.35,-199.56C557.66,-185.42 576.24,-165.68 591.28,-149.7"/>
<polygon fill="black" stroke="black" points="593.43,-152.52 597.74,-142.84 588.33,-147.73 593.43,-152.52"/>
<text xml:space="preserve" text-anchor="middle" x="601.44" y="-166.88" font-family="Helvetica,sans-Serif" font-size="10.00">totalValue</text>
</g>
</g>
</svg>
